<svg width="19" height="19" viewBox="0 0 19 19" fill="none" xmlns="http://www.w3.org/2000/svg">
<path d="M18.526 10.717C18.5228 10.4126 18.3992 10.1218 18.1822 9.90836C17.9652 9.6949 17.6724 9.57608 17.368 9.57795H2.678V2.17795C2.68064 1.89257 2.79634 1.61989 2.99974 1.41968C3.20313 1.21948 3.47761 1.10809 3.763 1.10996H4.052C4.28472 1.10911 4.51155 1.18312 4.699 1.32105C4.88645 1.45898 5.02458 1.65351 5.093 1.87595C4.77529 1.96079 4.49426 2.14769 4.29315 2.40787C4.09205 2.66806 3.98202 2.98712 3.98 3.31595V3.74296C3.98039 3.7901 3.99007 3.8367 4.00847 3.8801C4.02688 3.92351 4.05365 3.96289 4.08727 3.99595C4.12088 4.029 4.16068 4.05511 4.20439 4.07279C4.24809 4.09047 4.29486 4.09934 4.342 4.09894H6.658C6.70515 4.09934 6.75191 4.09047 6.79561 4.07279C6.83932 4.05511 6.87912 4.029 6.91273 3.99595C6.94635 3.96289 6.97312 3.92351 6.99153 3.8801C7.00993 3.8367 7.01961 3.7901 7.02 3.74296V3.31595C7.01768 2.97407 6.89862 2.64325 6.68257 2.37827C6.46651 2.11329 6.16642 1.93006 5.832 1.85895C5.75261 1.44616 5.53125 1.07417 5.20631 0.807501C4.88137 0.540828 4.47335 0.396301 4.053 0.398962H3.763C3.28767 0.396553 2.83068 0.582242 2.49177 0.915533C2.15286 1.24882 1.95954 1.70265 1.954 2.17795V9.57795H1.154C0.881576 9.57529 0.617254 9.67056 0.409146 9.84638C0.201037 10.0222 0.0629779 10.2669 0.020096 10.5359C-0.0227859 10.805 0.0323609 11.0805 0.175499 11.3123C0.318637 11.5441 0.540249 11.7168 0.8 11.799V12.999C0.80057 13.599 0.920888 14.1928 1.1539 14.7458C1.38692 15.2987 1.72795 15.7995 2.157 16.2189C2.05755 16.2957 1.9436 16.3515 1.822 16.3829C1.52778 16.4607 1.27619 16.6516 1.122 16.9139C1.04558 17.0428 0.995996 17.1858 0.976233 17.3342C0.95647 17.4827 0.966936 17.6336 1.007 17.778C1.07544 18.0215 1.22183 18.2359 1.42376 18.3884C1.62568 18.5408 1.872 18.6229 2.125 18.622C2.22629 18.6223 2.32717 18.6092 2.425 18.583C3.13514 18.3965 3.76095 17.9744 4.2 17.3859C4.60127 17.4948 5.01522 17.55 5.431 17.5499H13.1C13.5161 17.55 13.9304 17.4949 14.332 17.3859C14.7726 17.9731 15.3995 18.3934 16.11 18.5779C16.2078 18.6042 16.3087 18.6173 16.41 18.6169C16.663 18.6179 16.9093 18.5358 17.1112 18.3834C17.3132 18.2309 17.4596 18.0165 17.528 17.773C17.5677 17.6286 17.578 17.4777 17.5583 17.3293C17.5385 17.1809 17.4891 17.0379 17.413 16.9089C17.2589 16.6465 17.0073 16.4556 16.713 16.3779C16.5915 16.3462 16.4776 16.2904 16.378 16.2139C16.8076 15.7948 17.1491 15.2941 17.3825 14.7411C17.6159 14.1882 17.7364 13.5942 17.737 12.994V11.794C17.9676 11.7213 18.1692 11.5774 18.3129 11.383C18.4566 11.1886 18.5351 10.9537 18.537 10.712L18.526 10.717ZM6.296 3.31696V3.38794H4.7V3.31696C4.71862 3.1186 4.81058 2.93431 4.95789 2.80018C5.1052 2.66604 5.29727 2.59171 5.4965 2.59171C5.69573 2.59171 5.8878 2.66604 6.03511 2.80018C6.18242 2.93431 6.27438 3.1186 6.293 3.31696H6.296ZM2.232 17.8859C2.12076 17.916 2.00216 17.9009 1.902 17.8439C1.85317 17.8162 1.81034 17.779 1.77601 17.7345C1.74167 17.69 1.71652 17.6392 1.702 17.585C1.68704 17.5308 1.68313 17.4743 1.69052 17.4186C1.69791 17.3629 1.71644 17.3093 1.745 17.2609C1.80302 17.1619 1.89797 17.09 2.009 17.061C2.2717 16.9921 2.51367 16.8603 2.714 16.6769C2.95571 16.8492 3.21319 16.9982 3.483 17.122C3.15037 17.4943 2.71516 17.7601 2.232 17.8859ZM16.784 17.2609C16.8123 17.3094 16.8307 17.363 16.8381 17.4186C16.8454 17.4743 16.8417 17.5308 16.827 17.585C16.7972 17.6943 16.7253 17.7874 16.627 17.8439C16.5268 17.9009 16.4082 17.916 16.297 17.8859C15.8149 17.7595 15.3808 17.4938 15.049 17.122C15.3187 16.998 15.5761 16.849 15.818 16.6769C16.0183 16.8603 16.2603 16.9921 16.523 17.061C16.634 17.09 16.729 17.1619 16.787 17.2609H16.784ZM17.369 11.14H10.9C10.8056 11.14 10.715 11.1775 10.6483 11.2442C10.5815 11.311 10.544 11.4015 10.544 11.4959C10.544 11.5904 10.5815 11.6809 10.6483 11.7477C10.715 11.8144 10.8056 11.852 10.9 11.852H17.01V12.99C17.0005 14.0176 16.5837 14.9995 15.851 15.7202C15.1183 16.4408 14.1297 16.8414 13.102 16.8339H5.427C4.39941 16.8411 3.4109 16.4405 2.67829 15.7199C1.94568 14.9993 1.52877 14.0175 1.519 12.99V11.856H7.639C7.73342 11.856 7.82397 11.8184 7.89073 11.7517C7.95749 11.6849 7.995 11.5944 7.995 11.4999C7.995 11.4055 7.95749 11.315 7.89073 11.2482C7.82397 11.1815 7.73342 11.144 7.639 11.144H1.157C1.04375 11.144 0.935144 11.099 0.855066 11.0189C0.774988 10.9388 0.73 10.8302 0.73 10.717C0.73 10.6037 0.774988 10.4951 0.855066 10.415C0.935144 10.3349 1.04375 10.29 1.157 10.29H17.369C17.4822 10.29 17.5909 10.3349 17.6709 10.415C17.751 10.4951 17.796 10.6037 17.796 10.717C17.796 10.8302 17.751 10.9388 17.6709 11.0189C17.5909 11.099 17.4822 11.144 17.369 11.144V11.14Z" fill="#0A2C3D"/>
<path d="M9.26201 11.2239C9.18428 11.2242 9.10971 11.2547 9.05401 11.3089C9.02646 11.3355 9.00455 11.3675 8.98959 11.4028C8.97463 11.4381 8.96692 11.476 8.96692 11.5144C8.96692 11.5527 8.97463 11.5907 8.98959 11.626C9.00455 11.6613 9.02646 11.6932 9.05401 11.7199C9.10995 11.774 9.18471 11.8042 9.26251 11.8042C9.34031 11.8042 9.41507 11.774 9.47101 11.7199C9.49819 11.693 9.51977 11.661 9.5345 11.6257C9.54922 11.5905 9.55681 11.5526 9.55681 11.5144C9.55681 11.4761 9.54922 11.4383 9.5345 11.403C9.51977 11.3677 9.49819 11.3357 9.47101 11.3089C9.41506 11.2544 9.34008 11.2239 9.26201 11.2239Z" fill="#0A2C3D"/>
<path d="M14.767 2.92691C14.8059 2.92784 14.8446 2.92101 14.8808 2.90683C14.917 2.89265 14.9501 2.87142 14.978 2.84433C15.0059 2.81724 15.0282 2.78483 15.0435 2.74905C15.0587 2.71327 15.0667 2.67483 15.067 2.63593V2.2579C15.0542 2.18897 15.0178 2.12669 14.9639 2.08185C14.91 2.03701 14.8421 2.01245 14.772 2.01245C14.7019 2.01245 14.634 2.03701 14.5801 2.08185C14.5262 2.12669 14.4897 2.18897 14.477 2.2579V2.63593C14.4775 2.71277 14.5082 2.78633 14.5624 2.84076C14.6167 2.89519 14.6901 2.92613 14.767 2.92691Z" fill="#0A2C3D"/>
<path d="M14.767 5.78995C14.8059 5.79088 14.8446 5.78405 14.8808 5.76987C14.917 5.75568 14.9501 5.73442 14.978 5.70734C15.0059 5.68025 15.0282 5.64787 15.0435 5.61209C15.0587 5.57631 15.0667 5.53784 15.067 5.49893V5.13196C15.0542 5.06302 15.0178 5.00071 14.9639 4.95587C14.91 4.91103 14.8421 4.88647 14.772 4.88647C14.7019 4.88647 14.634 4.91103 14.5801 4.95587C14.5262 5.00071 14.4897 5.06302 14.477 5.13196V5.49893C14.4775 5.57578 14.5082 5.64936 14.5624 5.7038C14.6167 5.75823 14.6901 5.78916 14.767 5.78995Z" fill="#0A2C3D"/>
<path d="M16.254 4.384H16.637C16.6752 4.384 16.7131 4.3765 16.7484 4.36188C16.7837 4.34725 16.8158 4.32582 16.8428 4.2988C16.8698 4.27178 16.8912 4.23968 16.9059 4.20438C16.9205 4.16907 16.928 4.13123 16.928 4.09302C16.928 4.0548 16.9205 4.01696 16.9059 3.98166C16.8912 3.94635 16.8698 3.91426 16.8428 3.88724C16.8158 3.86022 16.7837 3.83878 16.7484 3.82416C16.7131 3.80953 16.6752 3.802 16.637 3.802H16.254C16.2158 3.802 16.178 3.80953 16.1427 3.82416C16.1073 3.83878 16.0753 3.86022 16.0482 3.88724C16.0212 3.91426 15.9998 3.94635 15.9852 3.98166C15.9705 4.01696 15.963 4.0548 15.963 4.09302C15.963 4.13123 15.9705 4.16907 15.9852 4.20438C15.9998 4.23968 16.0212 4.27178 16.0482 4.2988C16.0753 4.32582 16.1073 4.34725 16.1427 4.36188C16.178 4.3765 16.2158 4.384 16.254 4.384Z" fill="#0A2C3D"/>
<path d="M13.34 4.384H13.724C13.7622 4.384 13.8001 4.3765 13.8354 4.36188C13.8707 4.34725 13.9028 4.32582 13.9298 4.2988C13.9568 4.27178 13.9782 4.23968 13.9929 4.20438C14.0075 4.16907 14.015 4.13123 14.015 4.09302C14.015 4.0548 14.0075 4.01696 13.9929 3.98166C13.9782 3.94635 13.9568 3.91426 13.9298 3.88724C13.9028 3.86022 13.8707 3.83878 13.8354 3.82416C13.8001 3.80953 13.7622 3.802 13.724 3.802H13.34C13.3018 3.802 13.264 3.80953 13.2287 3.82416C13.1933 3.83878 13.1613 3.86022 13.1342 3.88724C13.1072 3.91426 13.0858 3.94635 13.0712 3.98166C13.0565 4.01696 13.049 4.0548 13.049 4.09302C13.049 4.13123 13.0565 4.16907 13.0712 4.20438C13.0858 4.23968 13.1072 4.27178 13.1342 4.2988C13.1613 4.32582 13.1933 4.34725 13.2287 4.36188C13.264 4.3765 13.3018 4.384 13.34 4.384Z" fill="#0A2C3D"/>
<path d="M9.26699 5.53702C9.30588 5.53795 9.34457 5.53112 9.3808 5.51694C9.41703 5.50275 9.45007 5.4815 9.478 5.45441C9.50593 5.42732 9.52818 5.39494 9.54346 5.35916C9.55873 5.32338 9.56673 5.28494 9.56699 5.24603V4.86801C9.55424 4.79908 9.51776 4.73679 9.46387 4.69196C9.40998 4.64712 9.34209 4.62256 9.27199 4.62256C9.20189 4.62256 9.134 4.64712 9.08011 4.69196C9.02622 4.73679 8.98974 4.79908 8.97699 4.86801V5.24603C8.97751 5.32288 9.0082 5.39643 9.06244 5.45087C9.11669 5.5053 9.19015 5.53623 9.26699 5.53702Z" fill="#0A2C3D"/>
<path d="M9.26699 8.02408C9.30588 8.02501 9.34457 8.01818 9.3808 8.004C9.41703 7.98982 9.45007 7.96856 9.478 7.94147C9.50593 7.91438 9.52818 7.882 9.54346 7.84622C9.55873 7.81044 9.56673 7.77197 9.56699 7.73306V7.36606C9.55424 7.29712 9.51776 7.23484 9.46387 7.19C9.40998 7.14516 9.34209 7.12061 9.27199 7.12061C9.20189 7.12061 9.134 7.14516 9.08011 7.19C9.02622 7.23484 8.98974 7.29712 8.97699 7.36606V7.73306C8.97751 7.80991 9.0082 7.88346 9.06244 7.9379C9.11669 7.99233 9.19015 8.02329 9.26699 8.02408Z" fill="#0A2C3D"/>
<path d="M10.34 6.6069H10.724C10.8012 6.6069 10.8752 6.57624 10.9298 6.52167C10.9844 6.46709 11.015 6.3931 11.015 6.31592C11.015 6.23874 10.9844 6.16471 10.9298 6.11014C10.8752 6.05556 10.8012 6.0249 10.724 6.0249H10.34C10.2628 6.0249 10.1888 6.05556 10.1342 6.11014C10.0797 6.16471 10.049 6.23874 10.049 6.31592C10.049 6.3931 10.0797 6.46709 10.1342 6.52167C10.1888 6.57624 10.2628 6.6069 10.34 6.6069Z" fill="#0A2C3D"/>
<path d="M7.81099 6.6069H8.19499C8.27217 6.6069 8.34618 6.57624 8.40076 6.52167C8.45533 6.46709 8.48599 6.3931 8.48599 6.31592C8.48599 6.23874 8.45533 6.16471 8.40076 6.11014C8.34618 6.05556 8.27217 6.0249 8.19499 6.0249H7.81099C7.73381 6.0249 7.65979 6.05556 7.60522 6.11014C7.55065 6.16471 7.51999 6.23874 7.51999 6.31592C7.51999 6.3931 7.55065 6.46709 7.60522 6.52167C7.65979 6.57624 7.73381 6.6069 7.81099 6.6069Z" fill="#0A2C3D"/>
</svg>
