<svg width="18" height="18" viewBox="0 0 18 18" fill="none" xmlns="http://www.w3.org/2000/svg">
<path d="M17.675 10.432H17.375V9.48505C17.3783 9.18345 17.2954 8.88718 17.1359 8.63116C16.9765 8.37515 16.7471 8.17005 16.475 8.04004V3.16702C16.4756 3.10672 16.459 3.0475 16.4271 2.99631C16.3952 2.94512 16.3494 2.90408 16.295 2.87802C16.4125 2.67862 16.4746 2.45148 16.475 2.22003C16.475 1.90177 16.3486 1.59653 16.1235 1.37149C15.8985 1.14645 15.5932 1.02002 15.275 1.02002C14.9567 1.02002 14.6515 1.14645 14.4265 1.37149C14.2014 1.59653 14.075 1.90177 14.075 2.22003C14.0755 2.44109 14.1327 2.65834 14.241 2.85104H3.72798C3.83631 2.65834 3.89346 2.44109 3.89398 2.22003C3.90231 1.89342 3.78057 1.57688 3.55553 1.34003C3.33049 1.10317 3.02059 0.965411 2.69398 0.957031C2.36738 0.965411 2.05748 1.10317 1.83244 1.34003C1.6074 1.57688 1.48566 1.89342 1.49398 2.22003C1.49434 2.45148 1.55648 2.67862 1.67398 2.87802C1.6196 2.90408 1.57378 2.94512 1.54189 2.99631C1.51001 3.0475 1.49339 3.10672 1.49398 3.16702V8.04004C1.22183 8.17005 0.992508 8.37515 0.833051 8.63116C0.673594 8.88718 0.590646 9.18345 0.593984 9.48505V10.432H0.299985C0.218377 10.4344 0.141018 10.469 0.0848066 10.5282C0.0285955 10.5874 -0.001899 10.6664 -1.55051e-05 10.748V15.171C-0.00107982 15.2115 0.00583707 15.2517 0.0203399 15.2895C0.0348428 15.3273 0.0566473 15.3619 0.0845075 15.3912C0.112368 15.4206 0.145738 15.4441 0.18271 15.4605C0.219683 15.477 0.259533 15.486 0.299985 15.487H0.599985V17.067C0.59892 17.1075 0.605837 17.1477 0.62034 17.1855C0.634843 17.2233 0.656647 17.2579 0.684508 17.2872C0.712368 17.3165 0.745738 17.3401 0.78271 17.3566C0.819683 17.373 0.859533 17.382 0.899984 17.383H2.09998C2.14048 17.3821 2.18039 17.3732 2.21742 17.3568C2.25446 17.3404 2.28788 17.3168 2.31576 17.2875C2.34365 17.2581 2.36545 17.2235 2.3799 17.1857C2.39436 17.1478 2.40118 17.1075 2.39998 17.067V15.487H15.579V17.067C15.5779 17.1075 15.5848 17.1477 15.5993 17.1855C15.6138 17.2233 15.6356 17.2579 15.6635 17.2872C15.6914 17.3165 15.7247 17.3401 15.7617 17.3566C15.7987 17.373 15.8385 17.382 15.879 17.383H17.079C17.1194 17.382 17.1593 17.373 17.1963 17.3566C17.2332 17.3401 17.2666 17.3165 17.2945 17.2872C17.3223 17.2579 17.3441 17.2233 17.3586 17.1855C17.3731 17.1477 17.38 17.1075 17.379 17.067V15.487H17.679C17.7194 15.486 17.7593 15.477 17.7963 15.4605C17.8332 15.4441 17.8666 15.4206 17.8945 15.3912C17.9223 15.3619 17.9441 15.3273 17.9586 15.2895C17.9731 15.2517 17.98 15.2115 17.979 15.171V10.748C17.9799 10.7073 17.9728 10.6668 17.958 10.6288C17.9432 10.5908 17.921 10.5561 17.8927 10.5268C17.8645 10.4974 17.8307 10.4739 17.7933 10.4576C17.756 10.4414 17.7157 10.4327 17.675 10.432ZM15.275 1.58704C15.4014 1.58044 15.5269 1.6119 15.6353 1.67737C15.7437 1.74283 15.8299 1.8393 15.8829 1.95428C15.9359 2.06927 15.9532 2.19751 15.9325 2.32242C15.9119 2.44733 15.8542 2.56318 15.7671 2.655C15.6799 2.74682 15.5672 2.81039 15.4435 2.83749C15.3198 2.8646 15.1909 2.85401 15.0733 2.80707C14.9557 2.76013 14.8549 2.67898 14.7839 2.57416C14.7129 2.46933 14.675 2.34563 14.675 2.21902C14.6727 2.13771 14.6866 2.05676 14.7158 1.98083C14.745 1.90491 14.7889 1.83552 14.8451 1.77667C14.9012 1.71782 14.9685 1.67066 15.043 1.63794C15.1174 1.60522 15.1977 1.58758 15.279 1.58603L15.275 1.58704ZM2.69198 1.58704C2.85195 1.59807 3.00176 1.66941 3.11117 1.78662C3.22058 1.90384 3.28143 2.05819 3.28143 2.21854C3.28143 2.37888 3.22058 2.53324 3.11117 2.65045C3.00176 2.76767 2.85195 2.839 2.69198 2.85004C2.53202 2.839 2.38221 2.76767 2.2728 2.65045C2.16339 2.53324 2.10254 2.37888 2.10254 2.21854C2.10254 2.05819 2.16339 1.90384 2.2728 1.78662C2.38221 1.66941 2.53202 1.59807 2.69198 1.58704ZM2.09198 3.48703H15.878V7.90802H14.672C14.8717 7.63261 14.9795 7.30124 14.98 6.96103V6.32904C14.9902 5.92072 14.838 5.52501 14.5568 5.22879C14.2755 4.93257 13.8883 4.76002 13.48 4.74902H11.08C10.6717 4.76002 10.2844 4.93257 10.0032 5.22879C9.72198 5.52501 9.56977 5.92072 9.57998 6.32904V6.96103C9.58047 7.30124 9.68825 7.63261 9.88798 7.90802H8.08099C8.28072 7.63261 8.3885 7.30124 8.38898 6.96103V6.32904C8.3992 5.92072 8.24699 5.52501 7.96577 5.22879C7.68455 4.93257 7.29729 4.76002 6.88898 4.74902H4.48898C4.08077 4.76028 3.69367 4.9329 3.4125 5.22906C3.13133 5.52523 2.97904 5.92079 2.98898 6.32904V6.96103C2.98947 7.30124 3.09725 7.63261 3.29698 7.90802H2.09998L2.09198 3.48703ZM14.376 6.33002V6.96204C14.3822 7.20695 14.2908 7.44427 14.1221 7.62186C13.9533 7.79944 13.7209 7.90274 13.476 7.90903H11.076C10.8311 7.90274 10.5987 7.79944 10.4299 7.62186C10.2611 7.44427 10.1698 7.20695 10.176 6.96204V6.33002C10.1698 6.0851 10.2611 5.84778 10.4299 5.6702C10.5987 5.49261 10.8311 5.38931 11.076 5.38303H13.476C13.7207 5.38828 13.9534 5.49044 14.1228 5.66705C14.2923 5.84367 14.3848 6.08031 14.38 6.32504L14.376 6.33002ZM7.78498 6.33002V6.96204C7.79116 7.20695 7.69983 7.44427 7.53105 7.62186C7.36228 7.79944 7.12989 7.90274 6.88498 7.90903H4.48498C4.24007 7.90274 4.00769 7.79944 3.83891 7.62186C3.67014 7.44427 3.57881 7.20695 3.58498 6.96204V6.33002C3.57881 6.0851 3.67014 5.84778 3.83891 5.6702C4.00769 5.49261 4.24007 5.38931 4.48498 5.38303H6.88498C7.12971 5.38828 7.36235 5.49044 7.53184 5.66705C7.70133 5.84367 7.79381 6.08031 7.78898 6.32504L7.78498 6.33002ZM1.19998 9.48404C1.19381 9.23913 1.28514 9.00177 1.45391 8.82419C1.62269 8.6466 1.85507 8.5433 2.09998 8.53702H15.878C16.1229 8.5433 16.3553 8.6466 16.5241 8.82419C16.6928 9.00177 16.7842 9.23913 16.778 9.48404V10.431H1.19998V9.48404ZM1.79998 16.75H1.19998V15.487H1.79998V16.75ZM16.779 16.75H16.179V15.487H16.779V16.75ZM17.379 14.855H0.599985V11.063H17.376L17.379 14.855Z" fill="#0A2C3D"/>
<path d="M2.36699 13.646H1.31499C1.2443 13.652 1.17842 13.6842 1.13041 13.7365C1.0824 13.7887 1.05576 13.857 1.05576 13.928C1.05576 13.9989 1.0824 14.0673 1.13041 14.1195C1.17842 14.1717 1.2443 14.204 1.31499 14.21H2.36699C2.43768 14.204 2.50355 14.1717 2.55156 14.1195C2.59957 14.0673 2.62622 13.9989 2.62622 13.928C2.62622 13.857 2.59957 13.7887 2.55156 13.7365C2.50355 13.6842 2.43768 13.652 2.36699 13.646Z" fill="#0A2C3D"/>
<path d="M16.615 13.646H3.671C3.63197 13.6427 3.59268 13.6476 3.55562 13.6602C3.51856 13.6729 3.48454 13.6932 3.4557 13.7197C3.42687 13.7462 3.40385 13.7784 3.3881 13.8142C3.37236 13.8501 3.36423 13.8888 3.36423 13.928C3.36423 13.9672 3.37236 14.0059 3.3881 14.0418C3.40385 14.0776 3.42687 14.1098 3.4557 14.1363C3.48454 14.1629 3.51856 14.1831 3.55562 14.1958C3.59268 14.2084 3.63197 14.2133 3.671 14.21H16.615C16.654 14.2133 16.6933 14.2084 16.7304 14.1958C16.7674 14.1831 16.8015 14.1629 16.8303 14.1363C16.8591 14.1098 16.8821 14.0776 16.8979 14.0418C16.9136 14.0059 16.9218 13.9672 16.9218 13.928C16.9218 13.8888 16.9136 13.8501 16.8979 13.8142C16.8821 13.7784 16.8591 13.7462 16.8303 13.7197C16.8015 13.6932 16.7674 13.6729 16.7304 13.6602C16.6933 13.6476 16.654 13.6427 16.615 13.646Z" fill="#0A2C3D"/>
</svg>
