<svg width="15" height="15" viewBox="0 0 15 15" fill="none" xmlns="http://www.w3.org/2000/svg">
<path d="M14.272 0.728974H3.934C3.82396 0.72545 3.71697 0.7655 3.63627 0.840394C3.55558 0.915288 3.50768 1.019 3.503 1.129V7.21597H0.431C0.32003 7.21274 0.212313 7.25368 0.131504 7.3298C0.0506939 7.40593 0.00339741 7.51101 0 7.62198L0 14.169C0.00103441 14.2243 0.0130356 14.279 0.0353097 14.3297C0.0575838 14.3804 0.0896888 14.4262 0.129768 14.4644C0.169848 14.5026 0.217106 14.5325 0.268811 14.5523C0.320516 14.5722 0.375642 14.5816 0.431 14.58H7.38C7.49097 14.5832 7.59869 14.5423 7.6795 14.4662C7.76031 14.39 7.8076 14.2849 7.811 14.174V11.28H14.272C14.382 11.2835 14.489 11.2435 14.5697 11.1686C14.6504 11.0937 14.6983 10.99 14.703 10.88V1.13998C14.7021 1.08457 14.6902 1.02989 14.668 0.979127C14.6457 0.92836 14.6136 0.882515 14.5735 0.844269C14.5334 0.806024 14.4861 0.776141 14.4343 0.756348C14.3826 0.736556 14.3274 0.727243 14.272 0.728974ZM6.949 13.768H0.862V8.03299H3.5V10.874C3.50468 10.984 3.55258 11.0877 3.63327 11.1626C3.71397 11.2375 3.82096 11.2775 3.931 11.274H6.949V13.768ZM6.949 10.468H4.365V8.03299H6.949V10.468ZM13.841 10.468H7.811V7.62698C7.8076 7.51602 7.76031 7.41093 7.6795 7.33481C7.59869 7.25869 7.49097 7.21775 7.38 7.22098H4.365V1.53998H13.841V10.468Z" fill="#0A2C3D"/>
<path d="M12.98 2.75605C12.9787 2.66145 12.9431 2.57054 12.88 2.50007C12.8382 2.4532 12.7868 2.41576 12.7294 2.39024C12.672 2.36472 12.6098 2.35171 12.547 2.35206H9.965C9.91006 2.34933 9.85513 2.35779 9.80355 2.37693C9.75198 2.39608 9.70484 2.42553 9.66498 2.46345C9.62513 2.50137 9.5934 2.54699 9.57172 2.59755C9.55004 2.64811 9.53886 2.70254 9.53886 2.75755C9.53886 2.81256 9.55004 2.86702 9.57172 2.91758C9.5934 2.96814 9.62513 3.01376 9.66498 3.05168C9.70484 3.0896 9.75198 3.11902 9.80355 3.13817C9.85513 3.15731 9.91006 3.1658 9.965 3.16307H11.509L8.8 5.71705C8.76003 5.75342 8.72809 5.79773 8.70624 5.84715C8.68439 5.89657 8.6731 5.95003 8.6731 6.00407C8.6731 6.05811 8.68439 6.11154 8.70624 6.16096C8.72809 6.21038 8.76003 6.25469 8.8 6.29106C8.88294 6.36759 8.99165 6.41008 9.1045 6.41008C9.21735 6.41008 9.32607 6.36759 9.409 6.29106L12.119 3.73707V5.19206C12.1264 5.30129 12.1751 5.40363 12.2551 5.47838C12.3351 5.55312 12.4405 5.59468 12.55 5.59468C12.6595 5.59468 12.7649 5.55312 12.8449 5.47838C12.9249 5.40363 12.9736 5.30129 12.981 5.19206V2.75605H12.98Z" fill="#0A2C3D"/>
</svg>
